<?xml version="1.0" ?>
<svg height="32" id="icon" viewBox="0 0 32 32" width="32" xmlns="http://www.w3.org/2000/svg">
    <defs>
        <style>
            .cls-1 {
                fill: none;
            }
            .cls-2 {
                fill: #494B4D;
            }
        </style>
    </defs>
    <path
            class="cls-2"
            d="M16,2A14,14,0,1,0,30,16,14,14,0,0,0,16,2ZM8,18a2,2,0,1,1,2-2A2,2,0,0,1,8,18Zm8,0a2,2,0,1,1,2-2A2,2,0,0,1,16,18Zm8,0a2,2,0,1,1,2-2A2,2,0,0,1,24,18Z"
            transform="translate(0 0)"
    />
    <path
            class="cls-1"
            d="M10,16a2,2,0,1,1-2-2A2,2,0,0,1,10,16Zm6-2a2,2,0,1,0,2,2A2,2,0,0,0,16,14Zm8,0a2,2,0,1,0,2,2A2,2,0,0,0,24,14Z"
            id="inner-path"
            transform="translate(0 0)"
    />
    <rect
            class="cls-1"
            data-name="&lt;Transparent Rectangle&gt;"
            height="32"
            id="_Transparent_Rectangle_"
            width="32"
    />
</svg>